<?xml version="1.0" encoding="utf-8"?>
<!-- Generator: Adobe Illustrator 26.0.1, SVG Export Plug-In . SVG Version: 6.00 Build 0)  -->
<svg version="1.1" id="Layer_1" xmlns="http://www.w3.org/2000/svg" xmlns:xlink="http://www.w3.org/1999/xlink" x="0px" y="0px"
	 viewBox="0 0 370.5 172.9" style="enable-background:new 0 0 370.5 172.9;" xml:space="preserve">
<style type="text/css">
	.st0{fill:#FFFFFF;}
</style>
<polygon class="st0" points="8.4,111.6 0,111.6 0,157.8 30.6,157.8 30.6,150.8 8.4,150.8 "/>
<path class="st0" d="M60.2,127.2c-2.9-1.5-6.2-2.2-9.5-2.1c-5.6,0-10,1.5-13,4.6c-3,3-4.5,7.2-4.5,12.4c0,5.3,1.7,9.4,5.2,12.4
	s8.1,4.4,14,4.4c2.3,0,4.7-0.2,7-0.6c2-0.3,3.9-0.8,5.8-1.5v-6.4c-1.8,0.7-3.6,1.2-5.5,1.5c-2.1,0.3-4.1,0.5-6.2,0.5
	c-7.6,0-11.7-2.4-12.3-7.1h27v-3.8c0-2.9-0.6-5.8-2-8.3C64.8,130.5,62.7,128.5,60.2,127.2z M41.1,139.5c0-2.2,1-4.3,2.6-5.8
	c2-1.5,4.4-2.2,6.9-2.1c2.5-0.2,5,0.5,7,2c1.7,1.4,2.7,3.6,2.7,5.8L41.1,139.5z"/>
<path class="st0" d="M103.7,129.2c-3-2.7-7.1-4.1-12.3-4.1c-3-0.1-6,0.7-8.6,2.1c-2.5,1.4-4.6,3.5-5.9,6c-2.9,5.5-2.9,12.1,0,17.6
	c1.4,2.5,3.4,4.5,5.9,5.9c2.6,1.4,5.6,2.1,8.6,2.1c2.4,0.1,4.7-0.3,6.9-1.1c2.1-0.8,4-2,5.6-3.6v3.7h8V109h-8.3L103.7,129.2z
	 M103.7,145.2c-0.7,2.1-2.1,3.9-3.9,5.1c-1.9,1.3-4.1,1.9-6.3,1.9c-2.7,0.1-5.4-0.9-7.4-2.8c-2-2-3-4.6-2.9-7.4
	c-0.2-5.5,4-10.1,9.5-10.4c0.3,0,0.5,0,0.8,0c2.3,0,4.5,0.7,6.4,1.9c1.8,1.3,3.2,3.1,3.9,5.2V145.2z"/>
<path class="st0" d="M149.2,129.8c-1.6-1.6-3.5-2.8-5.6-3.6c-2.2-0.8-4.6-1.1-6.9-1.1c-3-0.1-6,0.7-8.6,2.1
	c-2.5,1.4-4.6,3.4-5.9,5.9c-2.9,5.5-2.9,12.1,0,17.6c1.4,2.5,3.5,4.6,6.1,6c2.7,1.5,5.7,2.2,8.7,2.1c2.3,0,4.5-0.3,6.7-1
	c2-0.6,3.8-1.7,5.4-3.1v2c0,3.2-0.9,5.6-2.6,7.3c-1.7,1.6-4.5,2.4-8.3,2.4c-4,0.1-7.9-0.7-11.6-2.2v6.6c1.7,0.7,3.5,1.3,5.3,1.6
	c2.1,0.4,4.2,0.6,6.3,0.6c6.5,0,11.3-1.5,14.5-4.5c3.1-3,4.7-7.2,4.7-12.6v-29.8h-8.1L149.2,129.8z M148.9,145.1
	c-0.7,2.1-2,3.9-3.9,5.2c-1.9,1.3-4.1,2-6.4,1.9c-2.8,0.1-5.4-1-7.4-2.9c-2-2-3-4.7-2.9-7.5c-0.1-2.8,0.9-5.4,2.9-7.4
	c2-1.9,4.7-2.9,7.4-2.8c2.3,0,4.5,0.6,6.3,1.9c1.8,1.2,3.2,3.1,3.9,5.1V145.1z"/>
<path class="st0" d="M192.2,127.2c-2.9-1.5-6.2-2.2-9.5-2.1c-5.6,0-10,1.5-13,4.6c-3,3-4.5,7.2-4.6,12.4c0,5.3,1.7,9.4,5.1,12.4
	s8.1,4.4,14,4.4c2.3,0,4.7-0.2,7-0.6c2-0.3,3.9-0.8,5.8-1.5v-6.4c-1.8,0.7-3.6,1.2-5.5,1.5c-2,0.3-4.1,0.5-6.2,0.5
	c-7.6,0-11.7-2.4-12.3-7.1h27v-3.8c0-2.9-0.6-5.8-2-8.3C196.7,130.5,194.7,128.5,192.2,127.2z M173.1,139.5c0-2.2,1-4.3,2.6-5.8
	c2-1.5,4.4-2.2,6.9-2.1c2.5-0.2,5,0.5,7,2c1.7,1.4,2.7,3.6,2.7,5.8L173.1,139.5z"/>
<path class="st0" d="M216,131.1v-5.1h-8v31.7h8.3v-19.2c1-2.1,2.7-3.8,4.9-4.6c2.7-1,5.5-1.6,8.4-1.5v-6.3c-2.7,0-5.5,0.4-8.1,1.2
	C219.3,128,217.4,129.3,216,131.1z"/>
<path class="st0" d="M262.8,127.2c-2.6-1.4-5.4-2.1-8.4-2.1c-3.2,0-6.3,0.7-9.1,2.2c-2.7,1.4-4.9,3.6-6.1,6.4V109h-1.8v48.8h1.8
	v-7.5c1.4,2.6,3.5,4.8,6.1,6.3c2.8,1.5,5.9,2.2,9,2.2c2.9,0,5.8-0.7,8.3-2.1c2.5-1.4,4.6-3.4,6-5.9c1.5-2.7,2.3-5.8,2.2-8.8
	c0.1-3.1-0.7-6.1-2.2-8.8C267.4,130.7,265.4,128.6,262.8,127.2z M267.3,150c-1.3,2.2-3.1,4.1-5.4,5.3c-2.3,1.3-4.8,1.9-7.4,1.9
	c-3.4,0.1-6.8-0.9-9.6-2.8c-2.7-1.8-4.7-4.6-5.6-7.7v-9.4c0.8-3.2,2.8-6,5.6-7.8c2.8-1.9,6.2-2.9,9.6-2.8c2.6,0,5.2,0.6,7.4,1.9
	c2.3,1.3,4.1,3.1,5.4,5.4c1.4,2.5,2,5.2,2,8.1C269.4,144.8,268.7,147.6,267.3,150z"/>
<path class="st0" d="M291.8,125.1c-1.8,0-3.5,0.2-5.3,0.5c-1.6,0.3-3.1,0.7-4.6,1.3v1.7c3.1-1.3,6.5-1.9,9.9-1.9c4,0,7,0.8,8.8,2.5
	s2.7,4.2,2.7,7.7v5.3c-4.1-2.3-8.6-3.4-13.3-3.2c-8.4,0-12.5,3.3-12.5,10c-0.2,2.8,1.1,5.6,3.3,7.3c2.2,1.7,5.2,2.5,8.9,2.5
	c6.3,0,10.9-2,13.7-6.1v5.1h1.6v-20.9C305.2,129,300.7,125.1,291.8,125.1z M303.3,150.4c-1.1,2.2-2.9,3.9-5.1,5
	c-2.4,1.2-5.1,1.8-7.9,1.8c-3.7,0-6.5-0.7-8.4-2.1c-1.8-1.5-2.9-3.7-2.7-6.1c0-2.8,0.8-4.9,2.5-6.3c1.7-1.4,4.4-2.1,8.3-2.1
	c2.4,0,4.8,0.2,7.1,0.8c2.2,0.6,4.2,1.4,6.2,2.5L303.3,150.4z"/>
<path class="st0" d="M328.2,125.1c-2.6,0-5.2,0.5-7.5,1.6c-2.5,1.2-4.6,3-6.1,5.2v-5.9h-1.9v31.7h1.9v-23.3c3.5-5.2,8-7.8,13.7-7.8
	c3.6,0,6.2,0.9,7.8,2.6c1.6,1.7,2.4,4.2,2.4,7.5v21h1.9v-21.1c0.2-3.1-0.9-6.2-3-8.5C335.3,126.1,332.3,125.1,328.2,125.1z"/>
<polygon class="st0" points="352,141.9 369.1,126.1 366.4,126.1 349.6,141.7 349.6,109 347.8,109 347.8,157.8 349.6,157.8 
	349.6,142.1 367.9,157.8 370.5,157.8 "/>
<polygon class="st0" points="183.9,62.6 183.9,0 170.5,9.9 170.5,72.5 207.6,84.9 221,75 "/>
<path class="st0" d="M216.5,56.2c1.4-3.9-0.8-8.3-4.8-10.4c-0.3-0.2-0.6-0.3-0.9-0.4L198.4,41l-0.2,13.2l11.9,4
	C210.1,58.2,215,60.2,216.5,56.2z"/>
<path class="st0" d="M216.7,31.8c1.4-3.9-0.8-8.3-4.8-10.4c-0.3-0.2-0.6-0.3-0.9-0.4l-12.3-4.5l-0.2,13.2l11.9,4
	C210.3,33.9,215.3,35.9,216.7,31.8z"/>
</svg>
