<svg id="Layer_1" data-name="Layer 1" xmlns="http://www.w3.org/2000/svg" viewBox="0 0 50.49 84.92"><defs><style>.cls-1{fill:#fff;}</style></defs><polygon class="cls-1" points="13.38 62.57 13.37 0 0 9.93 0.01 72.5 37.12 84.92 50.49 74.99 13.38 62.57"/><path class="cls-1" d="M46,56.2c1.38-3.89-.77-8.27-4.82-10.38a7.75,7.75,0,0,0-.94-.39L27.86,41,27.7,54.21l11.92,4S44.53,60.23,46,56.2Z"/><path class="cls-1" d="M46.18,31.83c1.38-3.89-.77-8.27-4.82-10.38a8.47,8.47,0,0,0-.94-.39L28.08,16.61l-.16,13.23,11.91,4.05S44.75,35.86,46.18,31.83Z"/></svg>