<svg id="Layer_1" data-name="Layer 1" xmlns="http://www.w3.org/2000/svg" viewBox="0 0 391.51 172.93"><defs><style>.cls-1{fill:#fff;}</style></defs><polygon class="cls-1" points="8.38 111.61 0 111.61 0 157.75 30.56 157.75 30.56 150.82 8.38 150.82 8.38 111.61"/><path class="cls-1" d="M60.23,127.19a19.76,19.76,0,0,0-9.48-2.11q-8.45,0-13,4.55T33.2,142q0,7.93,5.15,12.35t14,4.42a42,42,0,0,0,7-.6,27.36,27.36,0,0,0,5.77-1.51v-6.41a27.6,27.6,0,0,1-5.54,1.46,37.9,37.9,0,0,1-6.21.52q-11.41,0-12.27-7.06h27v-3.83a17.25,17.25,0,0,0-2-8.34A14.12,14.12,0,0,0,60.23,127.19ZM41.12,139.47a7.53,7.53,0,0,1,2.64-5.75,10.36,10.36,0,0,1,6.86-2.11,10.81,10.81,0,0,1,7,2,7.37,7.37,0,0,1,2.68,5.81Z"/><path class="cls-1" d="M103.69,129.17q-4.5-4.09-12.28-4.09a17.19,17.19,0,0,0-8.61,2.14,15.38,15.38,0,0,0-5.94,6,19.06,19.06,0,0,0,0,17.59,15,15,0,0,0,5.94,5.87,17.58,17.58,0,0,0,8.61,2.08,19.69,19.69,0,0,0,6.93-1.09,17.05,17.05,0,0,0,5.61-3.6v3.7h8V109h-8.31Zm0,16a10.14,10.14,0,0,1-3.9,5.15,10.85,10.85,0,0,1-6.33,1.91,10.15,10.15,0,0,1-7.4-2.83,9.9,9.9,0,0,1-2.9-7.4,9.94,9.94,0,0,1,10.3-10.36,10.88,10.88,0,0,1,6.36,1.95,10,10,0,0,1,3.87,5.18Z"/><path class="cls-1" d="M149.16,129.76a17.22,17.22,0,0,0-5.61-3.59,19.69,19.69,0,0,0-6.93-1.09,17.58,17.58,0,0,0-8.61,2.08,14.91,14.91,0,0,0-5.94,5.87,18.95,18.95,0,0,0,0,17.59,15.36,15.36,0,0,0,6.07,6,17.76,17.76,0,0,0,8.71,2.15,21.23,21.23,0,0,0,6.67-1,14.82,14.82,0,0,0,5.35-3.07v2q0,4.81-2.55,7.26T138,166.39a28.71,28.71,0,0,1-11.62-2.24v6.6a22.42,22.42,0,0,0,5.28,1.59,34.79,34.79,0,0,0,6.34.59q9.77,0,14.48-4.46t4.72-12.63V126.07h-8.05Zm-.26,15.32a10,10,0,0,1-3.87,5.18,10.87,10.87,0,0,1-6.36,1.94,10,10,0,0,1-7.4-2.9,10.12,10.12,0,0,1-2.9-7.46,9.9,9.9,0,0,1,2.9-7.39,10.16,10.16,0,0,1,7.4-2.84,10.86,10.86,0,0,1,6.33,1.92,10.1,10.1,0,0,1,3.9,5.15Z"/><path class="cls-1" d="M192.16,127.19a19.74,19.74,0,0,0-9.47-2.11q-8.46,0-13,4.55T165.13,142q0,7.93,5.15,12.35t14,4.42a41.89,41.89,0,0,0,7-.6,27.36,27.36,0,0,0,5.77-1.51v-6.41a27.6,27.6,0,0,1-5.54,1.46,37.87,37.87,0,0,1-6.2.52q-11.43,0-12.28-7.06h27v-3.83a17.25,17.25,0,0,0-2-8.34A14.12,14.12,0,0,0,192.16,127.19Zm-19.11,12.28a7.53,7.53,0,0,1,2.64-5.75,10.36,10.36,0,0,1,6.86-2.11,10.86,10.86,0,0,1,7,2,7.4,7.4,0,0,1,2.67,5.81Z"/><path class="cls-1" d="M216,131.15v-5.08H208v31.68h8.32V138.54a8.8,8.8,0,0,1,4.92-4.65,21.41,21.41,0,0,1,8.35-1.49v-6.33a24.24,24.24,0,0,0-8.09,1.25A11.23,11.23,0,0,0,216,131.15Z"/><path class="cls-1" d="M262.84,127.19a16.85,16.85,0,0,0-8.35-2.11,19.19,19.19,0,0,0-9.07,2.21,13.38,13.38,0,0,0-6.11,6.37V109h-1.84v48.78h1.84v-7.46a15.64,15.64,0,0,0,6.14,6.27,18.24,18.24,0,0,0,9,2.18,17.07,17.07,0,0,0,8.32-2.05,15.11,15.11,0,0,0,6-5.87A17.3,17.3,0,0,0,271,142a17.58,17.58,0,0,0-2.17-8.84A15.45,15.45,0,0,0,262.84,127.19ZM267.3,150a13.8,13.8,0,0,1-5.38,5.31,15,15,0,0,1-7.43,1.88,16.61,16.61,0,0,1-9.6-2.77,14.09,14.09,0,0,1-5.58-7.72v-9.37a13.6,13.6,0,0,1,5.55-7.79,16.68,16.68,0,0,1,9.63-2.84,15.14,15.14,0,0,1,7.43,1.88,13.78,13.78,0,0,1,5.38,5.38,16.09,16.09,0,0,1,2,8.05A15.71,15.71,0,0,1,267.3,150Z"/><path class="cls-1" d="M296.8,125.08a27.64,27.64,0,0,0-5.28.53,24.3,24.3,0,0,0-4.62,1.32v1.65a26.2,26.2,0,0,1,9.9-1.92c4.05,0,7,.84,8.81,2.51s2.74,4.22,2.74,7.66v5.34a25.71,25.71,0,0,0-13.27-3.23q-12.54,0-12.54,10a8.61,8.61,0,0,0,3.34,7.3q3.33,2.53,8.94,2.54,9.44,0,13.73-6.07v5.08h1.65V136.89Q310.2,125.09,296.8,125.08Zm11.55,25.34a11.48,11.48,0,0,1-5.12,5,16.91,16.91,0,0,1-7.88,1.78c-3.74,0-6.53-.71-8.35-2.14a7.3,7.3,0,0,1-2.74-6.11q0-4.22,2.51-6.3c1.67-1.38,4.44-2.08,8.31-2.08a29.68,29.68,0,0,1,7.07.76,26.57,26.57,0,0,1,6.2,2.48Z"/><path class="cls-1" d="M341.22,125.08a18,18,0,0,0-7.53,1.62,15.15,15.15,0,0,0-6.13,5.24v-5.87h-1.85v31.68h1.85v-23.3q5.2-7.78,13.66-7.79,5.4,0,7.82,2.61c1.6,1.74,2.41,4.24,2.41,7.49v21h1.85V136.69a11.83,11.83,0,0,0-3-8.48Q347.36,125.08,341.22,125.08Z"/><polygon class="cls-1" points="372.96 141.91 390.06 126.07 387.42 126.07 370.65 141.71 370.65 108.97 368.81 108.97 368.81 157.75 370.65 157.75 370.65 142.11 388.87 157.75 391.51 157.75 372.96 141.91"/><polygon class="cls-1" points="183.89 62.57 183.88 0 170.51 9.93 170.52 72.5 207.63 84.92 221 74.99 183.89 62.57"/><path class="cls-1" d="M216.47,56.2c1.38-3.89-.77-8.27-4.82-10.38a7.75,7.75,0,0,0-.94-.39L198.37,41l-.16,13.23,11.92,4S215,60.23,216.47,56.2Z"/><path class="cls-1" d="M216.69,31.83c1.38-3.89-.77-8.27-4.82-10.38a7.75,7.75,0,0,0-.94-.39l-12.34-4.45-.16,13.23,11.92,4.05S215.26,35.86,216.69,31.83Z"/></svg>